<svg width="106" height="24" viewBox="0 0 106 24" fill="none" xmlns="http://www.w3.org/2000/svg">
<path d="M12.9049 14.544V18H0.928875V0.959999H12.6889V4.416H4.86488V7.728H11.5849V10.92H4.86488V14.544H12.9049ZM14.1921 14.232C14.1921 13.4 14.4241 12.672 14.8881 12.048C15.3521 11.424 15.9921 10.936 16.8081 10.584C17.6241 10.216 18.5601 10.032 19.6161 10.032C20.1281 10.032 20.6321 10.08 21.1281 10.176C21.6241 10.256 22.0561 10.376 22.4241 10.536V9.984C22.4241 9.296 22.2161 8.768 21.8001 8.4C21.3841 8.032 20.7521 7.848 19.9041 7.848C19.2001 7.848 18.5361 7.968 17.9121 8.208C17.3041 8.448 16.6561 8.792 15.9681 9.24L14.8161 6.792C15.6481 6.248 16.5121 5.84 17.4081 5.568C18.3201 5.296 19.2801 5.16 20.2881 5.16C22.1761 5.16 23.6401 5.616 24.6801 6.528C25.7361 7.424 26.2641 8.728 26.2641 10.44V13.728C26.2641 14.112 26.3201 14.384 26.4321 14.544C26.5601 14.688 26.7761 14.776 27.0801 14.808V18C26.7601 18.064 26.4561 18.112 26.1681 18.144C25.8961 18.176 25.6561 18.192 25.4481 18.192C24.7281 18.192 24.1761 18.048 23.7921 17.76C23.4241 17.472 23.1921 17.08 23.0961 16.584L23.0241 16.032C22.4641 16.752 21.7921 17.304 21.0081 17.688C20.2401 18.056 19.4321 18.24 18.5841 18.24C17.7521 18.24 17.0001 18.064 16.3281 17.712C15.6721 17.36 15.1521 16.88 14.7681 16.272C14.3841 15.664 14.1921 14.984 14.1921 14.232ZM21.8241 14.712C22.0001 14.568 22.1441 14.408 22.2561 14.232C22.3681 14.056 22.4241 13.888 22.4241 13.728V12.6C22.1041 12.472 21.7441 12.376 21.3441 12.312C20.9601 12.232 20.6001 12.192 20.2641 12.192C19.5601 12.192 18.9761 12.352 18.5121 12.672C18.0481 12.976 17.8161 13.384 17.8161 13.896C17.8161 14.184 17.8961 14.448 18.0561 14.688C18.2161 14.928 18.4321 15.12 18.7041 15.264C18.9921 15.408 19.3281 15.48 19.7121 15.48C20.0961 15.48 20.4801 15.408 20.8641 15.264C21.2481 15.12 21.5681 14.936 21.8241 14.712ZM33.8706 18.24C32.7986 18.24 31.7506 18.064 30.7266 17.712C29.7026 17.36 28.8386 16.84 28.1346 16.152L29.4546 13.728C30.2226 14.288 30.9666 14.712 31.6866 15C32.4226 15.288 33.1106 15.432 33.7506 15.432C34.2466 15.432 34.6306 15.352 34.9026 15.192C35.1746 15.032 35.3106 14.784 35.3106 14.448C35.3106 14.208 35.2306 14.024 35.0706 13.896C34.9106 13.752 34.6626 13.624 34.3266 13.512C34.0066 13.4 33.6066 13.28 33.1266 13.152C32.1666 12.832 31.3666 12.52 30.7266 12.216C30.0866 11.912 29.6066 11.544 29.2866 11.112C28.9666 10.664 28.8066 10.088 28.8066 9.384C28.8066 8.536 29.0146 7.8 29.4306 7.176C29.8626 6.536 30.4706 6.04 31.2546 5.688C32.0386 5.336 32.9746 5.16 34.0626 5.16C34.9266 5.16 35.7666 5.296 36.5826 5.568C37.4146 5.84 38.1906 6.296 38.9106 6.936L37.4226 9.336C36.7026 8.84 36.0626 8.48 35.5026 8.256C34.9426 8.032 34.3986 7.92 33.8706 7.92C33.5986 7.92 33.3506 7.952 33.1266 8.016C32.9026 8.08 32.7186 8.192 32.5746 8.352C32.4466 8.496 32.3826 8.688 32.3826 8.928C32.3826 9.168 32.4466 9.36 32.5746 9.504C32.7186 9.648 32.9346 9.776 33.2226 9.888C33.5266 9.984 33.9026 10.104 34.3506 10.248C35.3906 10.552 36.2546 10.864 36.9426 11.184C37.6306 11.488 38.1426 11.872 38.4786 12.336C38.8306 12.784 39.0066 13.384 39.0066 14.136C39.0066 15.416 38.5426 16.424 37.6146 17.16C36.7026 17.88 35.4546 18.24 33.8706 18.24ZM40.7207 19.896C41.0407 19.992 41.3367 20.064 41.6087 20.112C41.8967 20.176 42.1527 20.208 42.3767 20.208C42.6807 20.208 42.9367 20.136 43.1447 19.992C43.3687 19.864 43.5607 19.632 43.7207 19.296C43.8807 18.976 44.0247 18.544 44.1527 18L39.3527 5.4H43.3127L46.2407 14.064L48.7367 5.4H52.3607L47.5607 20.04C47.3367 20.728 46.9927 21.336 46.5287 21.864C46.0647 22.392 45.5047 22.8 44.8487 23.088C44.1927 23.392 43.4727 23.544 42.6887 23.544C42.3527 23.544 42.0247 23.512 41.7047 23.448C41.3847 23.4 41.0567 23.312 40.7207 23.184V19.896Z" fill="black"/>
<path d="M59.5136 0.983999H63.1376L64.9136 6.432L66.6896 0.983999H70.3376L67.4336 8.904L69.1616 13.44L73.4336 0.959999H77.7296L71.0816 18H67.6736L64.9136 11.328L62.1776 18H58.7456L52.1216 0.959999H56.3936L60.6896 13.44L62.3696 8.904L59.5136 0.983999ZM83.2112 18.24C82.1392 18.24 81.1872 18.072 80.3552 17.736C79.5232 17.384 78.8112 16.912 78.2192 16.32C77.6432 15.728 77.2032 15.048 76.8992 14.28C76.5952 13.496 76.4432 12.68 76.4432 11.832C76.4432 10.616 76.7072 9.512 77.2352 8.52C77.7792 7.512 78.5552 6.704 79.5632 6.096C80.5712 5.472 81.7872 5.16 83.2112 5.16C84.6352 5.16 85.8432 5.464 86.8352 6.072C87.8432 6.68 88.6112 7.48 89.1392 8.472C89.6672 9.448 89.9312 10.512 89.9312 11.664C89.9312 11.888 89.9152 12.112 89.8832 12.336C89.8672 12.544 89.8512 12.728 89.8352 12.888H80.5232C80.5712 13.448 80.7232 13.92 80.9792 14.304C81.2512 14.688 81.5952 14.984 82.0112 15.192C82.4272 15.384 82.8672 15.48 83.3312 15.48C83.9072 15.48 84.4432 15.344 84.9392 15.072C85.4512 14.8 85.8032 14.432 85.9952 13.968L89.2592 14.88C88.9392 15.536 88.4832 16.12 87.8912 16.632C87.3152 17.128 86.6272 17.52 85.8272 17.808C85.0432 18.096 84.1712 18.24 83.2112 18.24ZM80.4272 10.536H85.8992C85.8352 10.008 85.6832 9.552 85.4432 9.168C85.2032 8.768 84.8832 8.464 84.4832 8.256C84.0832 8.032 83.6432 7.92 83.1632 7.92C82.6672 7.92 82.2192 8.032 81.8192 8.256C81.4352 8.464 81.1232 8.768 80.8832 9.168C80.6432 9.552 80.4912 10.008 80.4272 10.536ZM99.2316 18.24C98.2716 18.24 97.4316 18.04 96.7116 17.64C95.9916 17.224 95.4236 16.648 95.0076 15.912V18H91.6716V0.48H95.5116V7.464C95.9276 6.728 96.4796 6.16 97.1676 5.76C97.8716 5.36 98.6956 5.16 99.6396 5.16C100.44 5.16 101.168 5.336 101.824 5.688C102.496 6.024 103.072 6.496 103.552 7.104C104.048 7.696 104.432 8.392 104.704 9.192C104.976 9.976 105.112 10.832 105.112 11.76C105.112 12.672 104.96 13.52 104.656 14.304C104.368 15.088 103.96 15.776 103.432 16.368C102.904 16.96 102.28 17.424 101.56 17.76C100.856 18.08 100.08 18.24 99.2316 18.24ZM98.1516 15C98.5836 15 98.9836 14.92 99.3516 14.76C99.7356 14.584 100.064 14.352 100.336 14.064C100.608 13.776 100.816 13.44 100.96 13.056C101.104 12.656 101.176 12.224 101.176 11.76C101.176 11.168 101.056 10.616 100.816 10.104C100.576 9.592 100.24 9.184 99.8076 8.88C99.3916 8.576 98.9036 8.424 98.3436 8.424C97.9436 8.424 97.5596 8.52 97.1916 8.712C96.8236 8.904 96.4956 9.168 96.2076 9.504C95.9196 9.824 95.6876 10.192 95.5116 10.608V13.248C95.6396 13.52 95.7996 13.768 95.9916 13.992C96.1836 14.2 96.3916 14.376 96.6156 14.52C96.8556 14.664 97.1036 14.784 97.3596 14.88C97.6316 14.96 97.8956 15 98.1516 15Z" fill="url(#paint0_linear_2135_1116)"/>
<defs>
<linearGradient id="paint0_linear_2135_1116" x1="-13.0375" y1="-9.49367" x2="104.866" y2="92.3417" gradientUnits="userSpaceOnUse">
<stop stop-color="#5038C2"/>
<stop offset="1" stop-color="#AC5CD5"/>
</linearGradient>
</defs>
</svg>
